<svg width="15" height="15" viewBox="0 0 15 15" fill="none" xmlns="http://www.w3.org/2000/svg">
<path d="M1.2997 14.3735L2.21246 4.20851C2.23737 3.93092 2.47003 3.71829 2.7487 3.71829H4.631V2.86935C4.631 1.28719 5.91812 0 7.5002 0C9.08222 0 10.3692 1.28719 10.3692 2.86935V3.71829H12.2528C12.5315 3.71829 12.7641 3.93092 12.789 4.20851L13.7054 14.4134C13.7189 14.564 13.6685 14.7133 13.5665 14.8248C13.4645 14.9364 13.3202 14.9999 13.1691 14.9999H1.83228C1.83185 14.9999 1.83128 14.9999 1.83085 14.9999C1.53344 14.9999 1.29245 14.7589 1.29245 14.4615C1.29253 14.4316 1.29497 14.4021 1.2997 14.3735ZM9.29241 2.86935C9.29241 1.88093 8.48841 1.07679 7.50013 1.07679C6.51178 1.07679 5.70771 1.88093 5.70771 2.86935V3.71829H9.29241V2.86935ZM12.5802 13.9232L11.7605 4.79507H10.3692V5.75787C10.3692 6.0552 10.1282 6.29626 9.8308 6.29626C9.53339 6.29626 9.29241 6.0552 9.29241 5.75787V4.79507H5.70771V5.75787C5.70771 6.0552 5.46673 6.29626 5.16932 6.29626C4.87191 6.29626 4.63092 6.0552 4.63092 5.75787V4.79507H3.24086L2.42121 13.9232H12.5802Z" fill="white"/>
</svg>
