<svg width="18" height="18" viewBox="0 0 18 18" fill="none" xmlns="http://www.w3.org/2000/svg">
<path d="M6 3C6 1.34315 7.34315 0 9 0C10.6569 0 12 1.34315 12 3V15C12 16.6569 10.6569 18 9 18C7.34315 18 6 16.6569 6 15V3Z" fill="url(#paint0_linear_2_5)"/>
<path d="M3 12C1.34315 12 0 10.6569 0 9C0 7.34315 1.34315 6 3 6H15C16.6569 6 18 7.34315 18 9C18 10.6569 16.6569 12 15 12H3Z" fill="url(#paint1_linear_2_5)"/>
<defs>
<linearGradient id="paint0_linear_2_5" x1="16" y1="1.5" x2="2.5" y2="16" gradientUnits="userSpaceOnUse">
<stop offset="0.0103849" stop-color="#FF0EF5"/>
<stop offset="1" stop-color="#3869C8"/>
</linearGradient>
<linearGradient id="paint1_linear_2_5" x1="16" y1="1.5" x2="2.5" y2="16" gradientUnits="userSpaceOnUse">
<stop offset="0.0103849" stop-color="#FF0EF5"/>
<stop offset="1" stop-color="#3869C8"/>
</linearGradient>
</defs>
</svg>
